# xmcd
#
# Track frame offsets: 
#        150
#        21236
#        44006
#        60122
#        70707
#        87097
#        100988
#        118889
#        141641
#        159799
#        173479
#        193892
#
# Disc length: 2778 seconds
#
# Revision: 2
# Processed by: cddbd v1.5.2PL0 Copyright (c) Steve Scherf et al.
# Submitted via: ExactAudioCopy v1.0b3
#
DISCID=a00ad80c
DTITLE=Bruce Springsteen - ´The Music of Bruce Springsteen
DYEAR=2002
DGENRE=Pop
TTITLE0=Born in the U.S.A.
TTITLE1=The River
TTITLE2=Dancing in the dark
TTITLE3=I'm on fire
TTITLE4=Glory day's
TTITLE5=Hungry heart
TTITLE6=Streets of Philadelphia
TTITLE7=Human touch
TTITLE8=My Hometown
TTITLE9=War
TTITLE10=Thunder road
TTITLE11=Cover me
EXTD=
EXTT0=
EXTT1=
EXTT2=
EXTT3=
EXTT4=
EXTT5=
EXTT6=
EXTT7=
EXTT8=
EXTT9=
EXTT10=
EXTT11=
PLAYORDER=
